<svg xmlns="http://www.w3.org/2000/svg" width="35" height="35" viewBox="0 0 24 24" fill="#3369F380" role="img" aria-label="Icon">
    <path d="M20.61 19.19a7 7 0 0 0-2.74-10.57 8 8 0 1 0-14.19 6.29l-1.39 1.38a1 1 0 0 0-.21 1.09 1 1 0 0 0 .92.62h5.69a7 7 0 0 0 6.31 4h6a1 1 0 0 0 .92-.62 1 1 0 0 0-.21-1.09zm-12.61-4.19a6.63 6.63 0 0 0 .08 1h-2.67l.35-.34a1 1 0 0 0 0-1.42 5.93 5.93 0 0 1-1.76-4.24 6 6 0 0 1 6-6 5.94 5.94 0 0 1 5.65 4c-.22 0-.43 0-.65 0a7 7 0 0 0-7 7zm10.54 5 .05.05h-3.59a5 5 0 1 1 3.54-1.46 1 1 0 0 0-.3.7 1 1 0 0 0 .3.71z" />
</svg>
