<svg width="40.000000" height="40.000000" viewBox="0 0 40 40" fill="none" xmlns="http://www.w3.org/2000/svg" xmlns:xlink="http://www.w3.org/1999/xlink">
    <path id="Union" d="M40 4C40 1.79086 38.2091 0 36 0L4 0C1.79089 0 0 1.79086 0 4L0 36C0 38.2091 1.79089 40 4 40L36 40C38.2091 40 40 38.2092 40 36L40 4ZM38 4C38 2.89542 37.1046 2 36 2L4 2C2.89539 2 2 2.89542 2 4L2 25.2667L14.6547 22.3139C15.5486 22.1053 16.4635 22 17.3815 22L22.6185 22C23.5365 22 24.4514 22.1053 25.3453 22.3139L38 25.2667L38 4ZM10.9092 7.27271C8.90076 7.27271 7.27271 8.90076 7.27271 10.9091C7.27271 12.9174 8.90076 14.5455 10.9092 14.5455C12.9175 14.5455 14.5455 12.9174 14.5455 10.9091C14.5455 8.90076 12.9175 7.27271 10.9092 7.27271ZM4 38C2.89539 38 2 37.1046 2 36L38 36C38 37.1046 37.1046 38 36 38L4 38Z" clip-rule="evenodd" fill="#3369F325" fill-opacity="1.000000" fill-rule="evenodd"/>
</svg>
